<mxfile host="app.diagrams.net" modified="2024-02-16T20:31:14.584Z" agent="Mozilla/5.0 (Windows NT 10.0; Win64; x64; rv:122.0) Gecko/20100101 Firefox/122.0" etag="q2oViC2KydM5hHFJkPJW" version="23.1.4" type="github">
  <diagram id="prtHgNgQTEPvFCAcTncT" name="Page-1">
    <mxGraphModel dx="2406" dy="1176" grid="1" gridSize="10" guides="1" tooltips="1" connect="1" arrows="1" fold="1" page="1" pageScale="1" pageWidth="827" pageHeight="1169" math="0" shadow="0">
      <root>
        <mxCell id="0" />
        <mxCell id="1" parent="0" />
        <mxCell id="Xon92TvHDKMdxUnF4vsS-2" value="&lt;font color=&quot;#ff6666&quot; style=&quot;font-size: 72px;&quot;&gt;JavaScript is a programming language commonly used for creating interactive and dynamic content on webpages&lt;/font&gt;" style="text;html=1;align=center;verticalAlign=middle;whiteSpace=wrap;rounded=0;" vertex="1" parent="1">
          <mxGeometry x="-255" y="360" width="1220" height="30" as="geometry" />
        </mxCell>
        <mxCell id="Xon92TvHDKMdxUnF4vsS-4" value="&lt;font style=&quot;font-size: 48px;&quot; color=&quot;#33001a&quot;&gt;javascript&lt;/font&gt;" style="shape=hexagon;perimeter=hexagonPerimeter2;whiteSpace=wrap;html=1;fixedSize=1;" vertex="1" parent="1">
          <mxGeometry x="160" y="80" width="440" height="80" as="geometry" />
        </mxCell>
        <mxCell id="Xon92TvHDKMdxUnF4vsS-5" value="&lt;font style=&quot;font-size: 48px;&quot;&gt;جافا سكريبت هو لغة برمجة تُستخدم بشكل شائع لإنشاء محتوى تفاعلي وديناميكي على صفحات الويب. إنها لغة برمجة مستوى عالٍ&lt;/font&gt;" style="text;whiteSpace=wrap;html=1;" vertex="1" parent="1">
          <mxGeometry x="-11" y="585" width="850" height="40" as="geometry" />
        </mxCell>
        <mxCell id="Xon92TvHDKMdxUnF4vsS-6" value="&lt;font color=&quot;#ff0000&quot; style=&quot;font-size: 48px;&quot;&gt;interpreted language that is integrated into web browsers. JavaScript &lt;br&gt;allows developers to manipulate webpage elements, respond to user &lt;br&gt;actions, validate input, and create animations, among other things.&lt;/font&gt;" style="text;whiteSpace=wrap;html=1;" vertex="1" parent="1">
          <mxGeometry x="-220" y="780" width="1230" height="70" as="geometry" />
        </mxCell>
        <mxCell id="Xon92TvHDKMdxUnF4vsS-7" value="&lt;font style=&quot;font-size: 48px;&quot;&gt;تُفسر مباشرة ومُدمجة داخل متصفحات الويب. يتيح جافا سكريبت للمطورين &lt;br&gt;تلاعب عناصر صفحة الويب، والاستجابة لإجراءات المستخدم، والتحقق من &lt;br&gt;الإدخال، وإنشاء الرسوم المتحركة، وغير ذلك الكثير.&lt;/font&gt;" style="text;whiteSpace=wrap;html=1;" vertex="1" parent="1">
          <mxGeometry x="-140" y="1220" width="1160" height="70" as="geometry" />
        </mxCell>
        <mxCell id="Xon92TvHDKMdxUnF4vsS-17" style="edgeStyle=orthogonalEdgeStyle;rounded=0;orthogonalLoop=1;jettySize=auto;html=1;" edge="1" parent="1" source="Xon92TvHDKMdxUnF4vsS-8" target="Xon92TvHDKMdxUnF4vsS-14">
          <mxGeometry relative="1" as="geometry" />
        </mxCell>
        <mxCell id="Xon92TvHDKMdxUnF4vsS-8" value="&lt;ol&gt;&lt;li&gt;&lt;p&gt;&lt;font style=&quot;font-size: 36px;&quot;&gt;&lt;strong&gt;Client-Side Web Development&lt;/strong&gt;: JavaScript is primarily used to enhance the interactivity and functionality of websites and web applications on the client-side (i.e., in the user&#39;s web browser). It can manipulate HTML and CSS to dynamically update content, respond to user interactions, validate form data, and create rich user interfaces.&lt;/font&gt;&lt;/p&gt;&lt;/li&gt;&lt;/ol&gt;" style="text;whiteSpace=wrap;html=1;" vertex="1" parent="1">
          <mxGeometry x="-240" y="1430" width="560" height="740" as="geometry" />
        </mxCell>
        <mxCell id="Xon92TvHDKMdxUnF4vsS-9" value="&lt;font style=&quot;font-size: 24px;&quot;&gt;&lt;strong&gt;Web Application Development&lt;/strong&gt;:&#xa; JavaScript is essential for building web applications, including &#xa;single-page applications (SPAs), which provide a more fluid user &#xa;experience by dynamically updating content without requiring full page &#xa;reloads. Popular JavaScript frameworks and libraries like React, &#xa;Angular, and Vue.js are commonly used for building complex web &#xa;applications.&lt;/font&gt;" style="text;whiteSpace=wrap;html=1;" vertex="1" parent="1">
          <mxGeometry x="450" y="1490" width="560" height="480" as="geometry" />
        </mxCell>
        <mxCell id="Xon92TvHDKMdxUnF4vsS-10" value="&lt;li&gt;&lt;p&gt;&lt;font style=&quot;font-size: 24px;&quot;&gt;&lt;strong&gt;Server-Side Development&lt;/strong&gt;: &lt;br&gt;JavaScript is also used for server-side development through platforms &lt;br&gt;like Node.js. With Node.js, developers can use JavaScript to build &lt;br&gt;scalable and efficient server-side applications, APIs (Application &lt;br&gt;Programming Interfaces), and real-time web applications.&lt;/font&gt;&lt;/p&gt;&lt;/li&gt;" style="text;whiteSpace=wrap;html=1;" vertex="1" parent="1">
          <mxGeometry x="480" y="1900" width="530" height="140" as="geometry" />
        </mxCell>
        <mxCell id="Xon92TvHDKMdxUnF4vsS-11" value="&lt;li&gt;&lt;p&gt;&lt;font style=&quot;font-size: 24px;&quot;&gt;&lt;strong&gt;Game Development&lt;/strong&gt;: JavaScript can &lt;br&gt;be utilized for creating browser-based games, interactive simulations, &lt;br&gt;and other multimedia experiences on the web. Libraries like Phaser.js &lt;br&gt;and Three.js provide tools and frameworks specifically tailored for game&lt;br&gt; development in JavaScript.&lt;/font&gt;&lt;/p&gt;&lt;/li&gt;" style="text;whiteSpace=wrap;html=1;" vertex="1" parent="1">
          <mxGeometry x="490" y="2260" width="560" height="140" as="geometry" />
        </mxCell>
        <mxCell id="Xon92TvHDKMdxUnF4vsS-12" value="&lt;font style=&quot;font-size: 24px;&quot;&gt;&lt;strong&gt;Mobile App Development&lt;/strong&gt;: JavaScript &lt;br&gt;frameworks such as React Native and Ionic allow developers to build &lt;br&gt;mobile applications for iOS and Android platforms using familiar web &lt;br&gt;technologies like HTML, CSS, and JavaScript.&lt;/font&gt;" style="text;whiteSpace=wrap;html=1;" vertex="1" parent="1">
          <mxGeometry x="460" y="2590" width="520" height="100" as="geometry" />
        </mxCell>
        <mxCell id="Xon92TvHDKMdxUnF4vsS-13" value="&lt;li&gt;&lt;p&gt;&lt;font style=&quot;font-size: 24px;&quot;&gt;&lt;strong&gt;Desktop Application Development&lt;/strong&gt;: &lt;br&gt;With frameworks like Electron, developers can use JavaScript to build &lt;br&gt;cross-platform desktop applications. Electron combines Node.js and &lt;br&gt;Chromium to create desktop applications using web technologies.&lt;/font&gt;&lt;/p&gt;&lt;/li&gt;" style="text;whiteSpace=wrap;html=1;" vertex="1" parent="1">
          <mxGeometry x="-250" y="2350" width="530" height="120" as="geometry" />
        </mxCell>
        <mxCell id="Xon92TvHDKMdxUnF4vsS-14" value="&lt;ol&gt;&lt;li value=&quot;4&quot;&gt;&lt;p&gt;&lt;font style=&quot;font-size: 24px;&quot;&gt;&lt;strong&gt;Data Visualization&lt;/strong&gt;:&lt;br&gt; JavaScript libraries like D3.js enable developers to create interactive&lt;br&gt; and dynamic data visualizations on webpages, making it easier to &lt;br&gt;present complex data in a comprehensible format.&lt;/font&gt;&lt;/p&gt;&lt;/li&gt;&lt;/ol&gt;&lt;p&gt;&lt;font size=&quot;3&quot;&gt;&lt;br&gt;&lt;/font&gt;&lt;/p&gt;" style="text;whiteSpace=wrap;html=1;" vertex="1" parent="1">
          <mxGeometry x="-270" y="2020" width="560" height="230" as="geometry" />
        </mxCell>
        <mxCell id="Xon92TvHDKMdxUnF4vsS-15" value="&lt;font style=&quot;font-size: 48px;&quot;&gt;Overall,&lt;br&gt; JavaScript is a versatile and powerful language that plays a crucial &lt;br&gt;role in modern web development, enabling developers to create dynamic &lt;br&gt;and interactive experiences across various platforms and devices.&lt;/font&gt;" style="text;whiteSpace=wrap;html=1;" vertex="1" parent="1">
          <mxGeometry x="-280" y="2810" width="1250" height="490" as="geometry" />
        </mxCell>
      </root>
    </mxGraphModel>
  </diagram>
</mxfile>
